<svg width="17" height="17" viewBox="0 0 17 17" fill="none" xmlns="http://www.w3.org/2000/svg">
<path d="M3.75 7.6501C3.75 8.87147 2.94097 9.7001 2.125 9.7001C1.30902 9.7001 0.5 8.87147 0.5 7.6501C0.5 6.42868 1.30902 5.6001 2.125 5.6001C2.94098 5.6001 3.75 6.42868 3.75 7.6501Z" fill="#231815" fill-opacity="0.91" stroke="black"/>
<path d="M10.125 11.05C10.125 12.2714 9.31594 13.1 8.5 13.1C7.68402 13.1 6.875 12.2714 6.875 11.05C6.875 9.82863 7.68402 9 8.5 9C9.31594 9 10.125 9.82863 10.125 11.05Z" fill="#231815" fill-opacity="0.91" stroke="black"/>
<path d="M10.125 2.55C10.125 3.77141 9.31594 4.6 8.5 4.6C7.68402 4.6 6.875 3.77142 6.875 2.55C6.875 1.32858 7.68402 0.5 8.5 0.5C9.31594 0.5 10.125 1.32859 10.125 2.55Z" fill="#231815" fill-opacity="0.91" stroke="black"/>
<path d="M16.5 7.6501C16.5 8.87146 15.6909 9.7001 14.875 9.7001C14.0591 9.7001 13.25 8.87146 13.25 7.6501C13.25 6.42869 14.0591 5.6001 14.875 5.6001C15.6909 5.6001 16.5 6.42869 16.5 7.6501Z" fill="#231815" fill-opacity="0.91" stroke="black"/>
<path d="M3.75 14.4504C3.75 15.6718 2.94097 16.5004 2.125 16.5004C1.30902 16.5004 0.5 15.6718 0.5 14.4504C0.5 13.229 1.30902 12.4004 2.125 12.4004C2.94097 12.4004 3.75 13.229 3.75 14.4504Z" fill="#231815" fill-opacity="0.91" stroke="black"/>
<path d="M16.5 14.4504C16.5 15.6718 15.6909 16.5004 14.875 16.5004C14.0591 16.5004 13.25 15.6718 13.25 14.4504C13.25 13.229 14.0591 12.4004 14.875 12.4004C15.6909 12.4004 16.5 13.229 16.5 14.4504Z" fill="#231815" fill-opacity="0.91" stroke="black"/>
</svg>
