<svg width="26" height="18" viewBox="0 0 26 18" fill="none" xmlns="http://www.w3.org/2000/svg">
<path fill-rule="evenodd" clip-rule="evenodd" d="M11.0443 9.52164H1.44111C1.26911 9.52164 1.09471 9.53844 0.925914 9.51524C0.417114 9.44404 -0.0132862 9.24484 0.000313759 8.64644C0.0131138 8.04804 0.430714 7.84484 0.962714 7.84324C2.87631 7.83604 4.78911 7.83604 6.70267 7.83684C11.4107 7.83764 16.1203 7.84404 20.8283 7.83844C22.3275 7.83604 23.4035 6.77364 23.3851 5.35524C23.3683 4.01684 22.2883 2.96004 20.9411 2.96404C19.5867 2.96804 18.5091 4.09604 18.5499 5.47124C18.5555 5.64244 18.5891 5.81284 18.6011 5.98404C18.6379 6.50644 18.4347 6.87844 17.8915 6.95764C17.3459 7.03684 17.0243 6.72644 16.9339 6.22084C16.7707 5.31364 16.8435 4.42644 17.2683 3.58484C18.1699 1.80404 20.0931 0.92406 22.0267 1.41764C23.8867 1.89204 25.1283 3.60644 25.0619 5.60724C24.9995 7.51124 23.6211 9.12884 21.6715 9.41924C20.6611 9.57044 19.6187 9.53284 18.5907 9.53844C16.0755 9.55364 13.5595 9.54324 11.0443 9.54324V9.52164Z" fill="#FF9933"/>
<path fill-rule="evenodd" clip-rule="evenodd" d="M10.9598 11.5838C13.2798 11.5838 15.6006 11.5846 17.9206 11.583C19.4774 11.583 20.7822 12.683 20.9094 14.1342C21.0686 15.9622 20.087 17.0574 18.463 17.375C16.9294 17.6742 15.5246 16.6782 15.211 15.1454C15.1158 14.6774 15.283 14.335 15.7326 14.1782C16.1806 14.0222 16.5302 14.191 16.7646 14.595C16.8182 14.687 16.8462 14.7934 16.887 14.8918C17.1566 15.5374 17.6366 15.8094 18.2494 15.6646C18.9126 15.507 19.299 14.9958 19.235 14.3598C19.1734 13.743 18.6798 13.2894 17.9998 13.2846C15.9374 13.2718 13.875 13.279 11.8126 13.279C9.17183 13.2798 6.53025 13.2806 3.89025 13.2806C3.76065 13.2806 3.63105 13.2886 3.50385 13.2734C3.00385 13.215 2.63985 12.9838 2.60225 12.4414C2.57105 11.9846 2.98225 11.615 3.55265 11.6078C4.96865 11.5918 6.38545 11.6006 7.80143 11.5998C8.85423 11.599 9.90703 11.599 10.9598 11.599V11.5838Z" fill="#FF9933"/>
<path fill-rule="evenodd" clip-rule="evenodd" d="M7.90282 5.80354C6.50683 5.80354 5.11083 5.80914 3.71563 5.80034C3.03083 5.79634 2.60763 5.47874 2.59643 4.99634C2.58443 4.48034 3.02443 4.12754 3.73003 4.12594C6.43643 4.12194 9.14282 4.12994 11.8492 4.12594C12.5828 4.12434 13.1044 3.69074 13.166 3.06674C13.2284 2.43954 12.8276 1.87634 12.2076 1.72034C11.606 1.56914 11.0596 1.89474 10.7732 2.61554C10.57 3.12594 10.2524 3.40034 9.68922 3.23314C9.16522 3.07714 8.99162 2.60594 9.20042 1.96754C9.55002 0.893949 10.6188 0.0731487 11.754 0.00514868C12.966 -0.0668513 14.1132 0.621949 14.6004 1.71634C15.4636 3.65554 14.0996 5.78274 11.9644 5.80594C10.6108 5.82114 9.25642 5.80914 7.90282 5.80914V5.80354Z" fill="#FF9933"/>
</svg>
